<?xml version="1.0" encoding="UTF-8" standalone="no"?>
<!-- Created with Inkscape (http://www.inkscape.org/) -->

<svg
   width="512"
   height="512"
   viewBox="0 0 135.46667 135.46667"
   version="1.1"
   id="svg1"
   inkscape:version="1.4 (86a8ad7, 2024-10-11)"
   sodipodi:docname="logo.svg"
   inkscape:export-filename="..\public\favicon.ico"
   inkscape:export-xdpi="12"
   inkscape:export-ydpi="12"
   xmlns:inkscape="http://www.inkscape.org/namespaces/inkscape"
   xmlns:sodipodi="http://sodipodi.sourceforge.net/DTD/sodipodi-0.dtd"
   xmlns="http://www.w3.org/2000/svg"
   xmlns:svg="http://www.w3.org/2000/svg">
  <sodipodi:namedview
     id="namedview1"
     pagecolor="#ffffff"
     bordercolor="#666666"
     borderopacity="1.0"
     inkscape:showpageshadow="2"
     inkscape:pageopacity="0.0"
     inkscape:pagecheckerboard="0"
     inkscape:deskcolor="#d1d1d1"
     inkscape:document-units="mm"
     inkscape:zoom="0.72426347"
     inkscape:cx="214.01052"
     inkscape:cy="218.84301"
     inkscape:window-width="1920"
     inkscape:window-height="1001"
     inkscape:window-x="-9"
     inkscape:window-y="-9"
     inkscape:window-maximized="1"
     inkscape:current-layer="layer1" />
  <defs
     id="defs1">
    <g
       id="g3029">
      <g
         id="g7357">
        <path
           d="M 6.46875,0.125 3.859375,-0.921875 c -0.640625,-0.25 -2.125,-0.84375 -2.125,-2.328125 0,-2.125 2.609375,-4.28125 3.125,-4.28125 0.046875,0 0.265625,0.046875 0.34375,0.078125 0.671875,0.1875 1.3125,0.1875 1.765625,0.1875 0.765625,0 2.21875,0 2.21875,-0.71875 0,-0.546875 -0.890625,-0.609375 -1.953125,-0.609375 -0.5,0 -1.15625,0 -2.0625,0.296875 -0.59375,-0.5 -0.828125,-1.296875 -0.828125,-2.03125 0,-1.375 0.890625,-3.296875 2.84375,-4.21875 0.4375,0.515625 1.046875,0.515625 1.5625,0.515625 0.625,0 2.125,0 2.125,-0.71875 0,-0.609375 -1.1875,-0.609375 -1.984375,-0.609375 -0.484375,0 -0.859375,0 -1.5625,0.125 C 7.21875,-15.53125 7.1875,-15.59375 7.1875,-16.125 c 0,-0.453125 0.09375,-0.796875 0.09375,-0.875 0,-0.15625 -0.125,-0.25 -0.25,-0.25 -0.390625,0 -0.390625,0.921875 -0.390625,1.125 0,0.34375 0.03125,0.6875 0.171875,1.015625 -2.96875,0.859375 -4.28125,2.96875 -4.28125,4.578125 0,1.484375 0.984375,2.296875 1.65625,2.671875 -2.546875,1.390625 -3.640625,3.921875 -3.640625,5.25 0,2.15625 1.953125,2.9375 2.84375,3.296875 L 5.625,1.59375 C 6.25,1.8125 7.265625,2.234375 7.4375,2.328125 7.6875,2.5 7.875,2.796875 7.875,3.203125 7.875,3.71875 7.484375,4.5625 6.609375,4.5625 6.25,4.5625 5.421875,4.453125 4.53125,3.796875 4.359375,3.640625 4.34375,3.625 4.234375,3.625 c -0.125,0 -0.25,0.09375 -0.25,0.234375 0,0.28125 1.296875,1.203125 2.625,1.203125 1.59375,0 2.5625,-1.546875 2.5625,-2.609375 C 9.171875,1.6875 8.75,1.0625 7.953125,0.71875 Z M 7.734375,-14.75 c 0.421875,-0.125 0.859375,-0.125 1.1875,-0.125 0.8125,0 0.890625,0.03125 1.390625,0.15625 -0.296875,0.125 -0.5,0.203125 -1.546875,0.203125 -0.46875,0 -0.765625,0 -1.03125,-0.234375 z M 5.78125,-7.953125 c 0.59375,-0.15625 1.125,-0.15625 1.4375,-0.15625 0.8125,0 0.859375,0.03125 1.40625,0.15625 -0.28125,0.125 -0.5,0.203125 -1.5625,0.203125 -0.59375,0 -0.84375,0 -1.28125,-0.203125 z m 0,0"
           id="path497" />
      </g>
    </g>
    <g
       id="g437">
      <g
         id="g2560">
        <path
           d="m 45.390625,50.203125 4.34375,-11.46875 H 48.84375 c -1.40625,3.71875 -5.203125,6.15625 -9.328125,7.234375 -0.75,0.1875 -4.265625,1.109375 -11.15625,1.109375 h -21.625 L 25,25.671875 c 0.25,-0.28125 0.3125,-0.390625 0.3125,-0.578125 0,-0.0625 0,-0.171875 -0.25,-0.53125 L 8.359375,1.71875 H 28 c 4.8125,0 8.078125,0.5 8.390625,0.578125 1.9375,0.28125 5.0625,0.890625 7.890625,2.6875 0.90625,0.578125 3.34375,2.1875 4.5625,5.09375 h 0.890625 L 45.390625,0 h -42.375 C 2.1875,0 2.15625,0.03125 2.046875,0.25 2.015625,0.359375 2.015625,1.046875 2.015625,1.4375 L 20.984375,27.390625 2.40625,49.15625 c -0.359375,0.4375 -0.359375,0.609375 -0.359375,0.65625 0,0.390625 0.3125,0.390625 0.96875,0.390625 z m 0,0"
           id="path6601" />
      </g>
    </g>
    <g
       id="g9676">
      <g
         id="g7000">
        <path
           d="M 4.6875,-1.21875 C 3.21875,-1.78125 2.375,-2.90625 2.375,-4.765625 c 0,-3.390625 2.5,-7.921875 5.5625,-9.6875 0.4375,0.421875 1.015625,0.421875 1.484375,0.421875 0.609375,0 2.125,0 2.125,-0.71875 0,-0.59375 -1.109375,-0.609375 -1.90625,-0.609375 -0.5,0 -0.921875,0 -1.5625,0.265625 -0.140625,-0.3125 -0.21875,-0.671875 -0.21875,-1.03125 0,-0.453125 0.09375,-0.796875 0.09375,-0.875 0,-0.15625 -0.125,-0.25 -0.25,-0.25 -0.390625,0 -0.390625,0.921875 -0.390625,1.125 0,0.21875 0,0.734375 0.296875,1.25 -2.875,1.5 -6.5,6.125 -6.5,10.765625 0,3.390625 2.265625,4.1875 3.546875,4.625 0.328125,0.109375 1.125,0.375 1.4375,0.5 1.015625,0.34375 1.984375,0.671875 1.984375,1.859375 0,0.71875 -0.515625,1.6875 -1.4375,1.6875 -0.5,0 -1.15625,-0.171875 -1.78125,-0.796875 C 4.765625,3.671875 4.703125,3.625 4.578125,3.625 c -0.1875,0 -0.234375,0.1875 -0.234375,0.234375 0,0.25 1.0625,1.203125 2.296875,1.203125 C 8.234375,5.0625 9.3125,3.390625 9.3125,2.109375 9.3125,0.375 7.875,-0.125 6.96875,-0.421875 Z M 8.46875,-14.6875 c 0.375,-0.1875 0.71875,-0.1875 1.140625,-0.1875 0.796875,0 0.875,0.03125 1.375,0.15625 -0.296875,0.125 -0.5,0.203125 -1.546875,0.203125 -0.515625,0 -0.6875,0 -0.96875,-0.171875 z m 0,0"
           id="path91" />
      </g>
    </g>
    <g
       id="g1224">
      <g
         id="g3054">
        <path
           d="m 3.734375,78.0625 c 1.140625,-0.0625 1.75,-0.859375 1.75,-1.75 0,-1.1875 -0.890625,-1.765625 -1.71875,-1.765625 -0.859375,0 -1.75,0.546875 -1.75,1.796875 0,1.828125 1.78125,3.328125 3.96875,3.328125 5.5625,0 7.640625,-8.671875 10.375,-20.21875 0.53125,-2.1875 1.78125,-7.703125 2.28125,-9.9375 5.421875,0 9.6875,-4.375 9.6875,-9.671875 0,-2.734375 -1.25,-6.921875 -5.984375,-8.96875 1.078125,-6.421875 2.1875,-13.015625 3.515625,-19.21875 0.78125,-3.59375 2.359375,-10.875 4.125,-10.875 1.109375,0 2,0.6875 2.140625,0.828125 C 30.953125,1.6875 30.34375,2.46875 30.34375,3.375 c 0,1.171875 0.890625,1.75 1.71875,1.75 0.859375,0 1.75,-0.53125 1.75,-1.796875 C 33.8125,1.40625 31.875,0 29.90625,0 c -2.828125,0 -4.8125,4.203125 -6.703125,11.265625 -0.796875,2.90625 -2.015625,8.0625 -2.21875,8.953125 -0.546875,2.1875 -1.796875,7.71875 -2.296875,9.9375 -5.421875,0 -9.6875,4.375 -9.6875,9.6875 0,2.71875 1.25,6.921875 5.984375,8.953125 -1.5,9.078125 -2.75,16.109375 -3.828125,20.515625 C 10.5,71.96875 8.859375,78.890625 5.921875,78.890625 4.625,78.890625 3.765625,78.0625 3.734375,78.0625 Z M 15.203125,47.328125 C 12.375,46 10.4375,43.140625 10.4375,39.84375 c 0,-4.0625 3.015625,-7.96875 7.921875,-8.25 z M 22.09375,32.34375 c 2.796875,1.25 4.796875,4.125 4.796875,7.5 0,4.046875 -3.015625,7.953125 -7.921875,8.25 z m 0,0"
           id="path9085" />
      </g>
    </g>
  </defs>
  <g
     inkscape:label="Calque 1"
     inkscape:groupmode="layer"
     id="layer1">
    <rect
       style="fill:#000000;stroke:none;stroke-width:0.264583;stroke-linecap:round;-inkscape-stroke:none;paint-order:stroke fill markers"
       id="rect1"
       width="135.46667"
       height="135.46667"
       x="0"
       y="0" />
    <g
       inkscape:label=""
       transform="matrix(13.298699,0,0,13.298699,43.506242,15.393852)"
       id="g1"
       style="fill:#ffffff;stroke-width:0.0751954">
      <g
         fill="#000000"
         fill-opacity="1"
         id="g2"
         transform="matrix(0.352778,0,0,0.352778,-64.4398,-9.80052)"
         style="fill:#ffffff;stroke-width:0.0751954">
        <g
           id="use1"
           transform="translate(182.117,45.030998)"
           style="fill:#ffffff;stroke-width:0.0751954">
          <path
             d="M 6.46875,0.125 3.859375,-0.921875 c -0.640625,-0.25 -2.125,-0.84375 -2.125,-2.328125 0,-2.125 2.609375,-4.28125 3.125,-4.28125 0.046875,0 0.265625,0.046875 0.34375,0.078125 0.671875,0.1875 1.3125,0.1875 1.765625,0.1875 0.765625,0 2.21875,0 2.21875,-0.71875 0,-0.546875 -0.890625,-0.609375 -1.953125,-0.609375 -0.5,0 -1.15625,0 -2.0625,0.296875 -0.59375,-0.5 -0.828125,-1.296875 -0.828125,-2.03125 0,-1.375 0.890625,-3.296875 2.84375,-4.21875 0.4375,0.515625 1.046875,0.515625 1.5625,0.515625 0.625,0 2.125,0 2.125,-0.71875 0,-0.609375 -1.1875,-0.609375 -1.984375,-0.609375 -0.484375,0 -0.859375,0 -1.5625,0.125 C 7.21875,-15.53125 7.1875,-15.59375 7.1875,-16.125 c 0,-0.453125 0.09375,-0.796875 0.09375,-0.875 0,-0.15625 -0.125,-0.25 -0.25,-0.25 -0.390625,0 -0.390625,0.921875 -0.390625,1.125 0,0.34375 0.03125,0.6875 0.171875,1.015625 -2.96875,0.859375 -4.28125,2.96875 -4.28125,4.578125 0,1.484375 0.984375,2.296875 1.65625,2.671875 -2.546875,1.390625 -3.640625,3.921875 -3.640625,5.25 0,2.15625 1.953125,2.9375 2.84375,3.296875 L 5.625,1.59375 C 6.25,1.8125 7.265625,2.234375 7.4375,2.328125 7.6875,2.5 7.875,2.796875 7.875,3.203125 7.875,3.71875 7.484375,4.5625 6.609375,4.5625 6.25,4.5625 5.421875,4.453125 4.53125,3.796875 4.359375,3.640625 4.34375,3.625 4.234375,3.625 c -0.125,0 -0.25,0.09375 -0.25,0.234375 0,0.28125 1.296875,1.203125 2.625,1.203125 1.59375,0 2.5625,-1.546875 2.5625,-2.609375 C 9.171875,1.6875 8.75,1.0625 7.953125,0.71875 Z M 7.734375,-14.75 c 0.421875,-0.125 0.859375,-0.125 1.1875,-0.125 0.8125,0 0.890625,0.03125 1.390625,0.15625 -0.296875,0.125 -0.5,0.203125 -1.546875,0.203125 -0.46875,0 -0.765625,0 -1.03125,-0.234375 z M 5.78125,-7.953125 c 0.59375,-0.15625 1.125,-0.15625 1.4375,-0.15625 0.8125,0 0.859375,0.03125 1.40625,0.15625 -0.28125,0.125 -0.5,0.203125 -1.5625,0.203125 -0.59375,0 -0.84375,0 -1.28125,-0.203125 z m 0,0"
             id="path2"
             style="fill:#ffffff;stroke-width:0.0751954" />
        </g>
      </g>
    </g>
  </g>
</svg>
